<?xml version="1.0" encoding="UTF-8" standalone="no"?>
<svg
   xmlns:dc="http://purl.org/dc/elements/1.1/"
   xmlns:cc="http://creativecommons.org/ns#"
   xmlns:rdf="http://www.w3.org/1999/02/22-rdf-syntax-ns#"
   xmlns:svg="http://www.w3.org/2000/svg"
   xmlns="http://www.w3.org/2000/svg"
   xmlns:xlink="http://www.w3.org/1999/xlink"
   viewBox="0 0 586.65628 283.09251"
   height="74.901558mm"
   width="155.21947mm"
   xml:space="preserve"
   version="1.1"
   id="svg2"><metadata
     id="metadata8"><rdf:RDF><cc:Work
         rdf:about=""><dc:format>image/svg+xml</dc:format><dc:type
           rdf:resource="http://purl.org/dc/dcmitype/StillImage" /><dc:title></dc:title></cc:Work></rdf:RDF></metadata><defs
     id="defs6"><clipPath
       id="SVGID_2_"><use
         height="100%"
         width="100%"
         y="0"
         x="0"
         id="use10"
         style="overflow:visible"
         xlink:href="#SVGID_1_" /></clipPath><clipPath
       id="SVGID_4_"><use
         height="100%"
         width="100%"
         y="0"
         x="0"
         id="use18"
         style="overflow:visible"
         xlink:href="#SVGID_3_" /></clipPath><clipPath
       id="SVGID_6_"><use
         height="100%"
         width="100%"
         y="0"
         x="0"
         id="use26"
         style="overflow:visible"
         xlink:href="#SVGID_5_" /></clipPath><clipPath
       id="clipPath2150"><use
         height="100%"
         width="100%"
         y="0"
         x="0"
         id="use2148"
         style="overflow:visible"
         xlink:href="#SVGID_5_" /></clipPath><clipPath
       id="clipPath2154"><use
         height="100%"
         width="100%"
         y="0"
         x="0"
         id="use2152"
         style="overflow:visible"
         xlink:href="#SVGID_5_" /></clipPath><clipPath
       id="clipPath2158"><use
         height="100%"
         width="100%"
         y="0"
         x="0"
         id="use2156"
         style="overflow:visible"
         xlink:href="#SVGID_5_" /></clipPath><clipPath
       id="clipPath2162"><use
         height="100%"
         width="100%"
         y="0"
         x="0"
         id="use2160"
         style="overflow:visible"
         xlink:href="#SVGID_5_" /></clipPath><clipPath
       id="clipPath2166"><use
         height="100%"
         width="100%"
         y="0"
         x="0"
         id="use2164"
         style="overflow:visible"
         xlink:href="#SVGID_5_" /></clipPath><clipPath
       id="clipPath2170"><use
         height="100%"
         width="100%"
         y="0"
         x="0"
         id="use2168"
         style="overflow:visible"
         xlink:href="#SVGID_5_" /></clipPath><rect
       height="114.6"
       width="178.60001"
       y="242.39999"
       x="427.5"
       id="SVGID_1_" /><rect
       height="81.5"
       width="176.3"
       y="247.60001"
       x="428.60001"
       id="SVGID_3_" /><rect
       height="81.5"
       width="176.3"
       y="247.60001"
       x="428.60001"
       id="SVGID_5_" /></defs><g
     transform="matrix(1.25,0,0,-1.25,0,283.0925)"
     id="g10"><g
       transform="matrix(0.97340974,0,0,-0.97340974,0.74240254,143.70959)"
       id="g866"><path
         class="cls-1"
         d="m 79.14,-11.389999 h -71 A 8.13,8.13 0 0 0 0.03,-3.2799994 V 15.820001 h 19.7 v -3.12 a 4.4,4.4 0 0 1 4.39,-4.3900004 h 39.07 a 4.39,4.39 0 0 1 4.38,4.3900004 v 3.12 H 87.28 V -3.2799994 a 8.13,8.13 0 0 0 -8.14,-8.1099996 z"
         id="path8"
         style="fill:#ed1944" /><path
         class="cls-1"
         d="m 67.54,49.910001 a 4.39,4.39 0 0 1 -4.38,4.39 H 24.09 a 4.4,4.4 0 0 1 -4.39,-4.39 v -3.12 H 0 v 19.1 a 8.13,8.13 0 0 0 8.11,8.11 h 71 a 8.13,8.13 0 0 0 8.11,-8.11 v -19.1 H 67.54 Z"
         id="path10"
         style="fill:#ed1944" /><rect
         class="cls-1"
         y="21.450001"
         width="19.700001"
         height="19.700001"
         id="rect12"
         x="0"
         style="fill:#ed1944" /><rect
         class="cls-1"
         x="67.550003"
         y="21.450001"
         width="19.700001"
         height="19.700001"
         id="rect14"
         style="fill:#ed1944" /><path
         class="cls-2"
         d="m 480.62,47.860001 a 5.55,5.55 0 1 0 -5.54,5.54 5.55,5.55 0 0 0 5.54,-5.54 z m -5.54,4.18 a 4.19,4.19 0 1 1 4.18,-4.18 4.18,4.18 0 0 1 -4.18,4.18 z"
         id="path16"
         style="fill:#4e4540" /><path
         class="cls-2"
         d="m 477.16,46.850001 v 0 a 1.75,1.75 0 0 0 -0.46,-1.26 2,2 0 0 0 -1.48,-0.52 h -2 v 5.43 h 1.13 v -1.78 h 0.7 l 1,1.78 h 1.29 l -1.15,-2 a 1.66,1.66 0 0 0 0.97,-1.65 z m -1.14,0 a 0.78,0.78 0 0 1 -0.88,0.82 h -0.83 v -1.64 h 0.8 c 0.58,0 0.91,0.27 0.91,0.81 z"
         id="path18"
         style="fill:#4e4540" /><path
         class="cls-2"
         d="m 147.71,31.680001 v -0.75 c 0,-13.11 -8.6,-22.6300004 -20.3,-22.6300004 -11.7,0 -20.46,9.6800004 -20.46,22.7100004 v 0.76 c 0,13.11 8.6,22.55 20.3,22.55 11.7,0 20.46,-9.61 20.46,-22.64 z m -31.32,-0.14 v -0.51 c 0,-8.27 4.26,-14.36 10.86,-14.36 6.43,0 11,6.18 11,14.45 v 0.5 c 0,8.27 -4.26,14.45 -10.86,14.45 -6.41,-0.02 -11,-6.29 -11,-14.53 z"
         id="path20"
         style="fill:#4e4540" /><path
         class="cls-2"
         d="m 192.64,31.850001 v -1.17 c 0,-14.95 -8.35,-22.3800004 -17.21,-22.3800004 -6.34,0 -10.19,3.6700004 -12.94,7.9300004 V 9.1300006 h -9.44 V 66.010001 h 9.44 v -19.29 c 2.67,3.92 6.51,7.51 12.94,7.51 8.94,0 17.21,-7.51 17.21,-22.38 z m -30.32,-0.17 v -0.83 c 0,-8.69 4.84,-14.2 10.52,-14.2 5.68,0 10.28,5.43 10.28,14.28 v 0.75 c 0,8.86 -4.51,14.2 -10.28,14.2 -5.77,0 -10.52,-5.51 -10.52,-14.2 z"
         id="path22"
         style="fill:#4e4540" /><path
         class="cls-2"
         d="m 233.53,47.470001 -4.92,-5.85 c -2.93,2.84 -6,4.68 -10.19,4.68 -5.77,0 -10.36,-4 -11.2,-11.44 h 27.73 c 0.09,-1.34 0.09,-2.68 0.09,-3.26 0,-13.28 -6.35,-23.3000004 -18.38,-23.3000004 -10.86,0 -18.87,9.5200004 -18.87,22.8000004 v 0.67 c 0,13.86 8.85,22.55 20.21,22.55 a 20.34,20.34 0 0 0 15.53,-6.85 z m -16.87,-31.24 c 5.51,0 8.69,5.1 9.19,12.11 h -18.71 c 0.63,-7.52 4.34,-12.11 9.52,-12.11 z"
         id="path24"
         style="fill:#4e4540" /><path
         class="cls-2"
         d="m 262.77,8.3000006 c -6,0 -9.6,3.4200004 -12.11,7.3500004 V 9.1300006 h -9.44 V 53.400001 h 9.44 v -26.81 c 0,-6.1 3.42,-9.77 8.35,-9.77 4.93,0 7.94,3.42 7.94,9.6 v 27 h 9.43 v -29.67 c -0.02,-9.44 -5.11,-15.4500004 -13.61,-15.4500004 z"
         id="path26"
         style="fill:#4e4540" /><path
         class="cls-2"
         d="m 314.41,40.790001 v -0.09 c 0,-6.93 -5.18,-10.1 -12,-13.19 -5.18,-2.34 -8.68,-3.85 -8.68,-6.77 v -0.2 c 0,-2.42 2.08,-4.34 5.59,-4.34 3.51,0 7.18,1.67 10.52,3.93 l 4,-6.94 A 25.29,25.29 0 0 0 299.48,8.4300006 c -8.27,0 -14.62,5.0000004 -14.62,12.9500004 v 0.16 c 0,7.26 5.51,10.27 12.11,13.11 5.26,2.25 8.69,3.67 8.69,6.85 v 0.08 c 0,2.76 -2.26,4.85 -6.18,4.85 -3.92,0 -8.19,-1.93 -12.2,-5.18 l -4.42,6.76 a 26.11,26.11 0 0 0 16.45,6.18 c 8.46,0.04 15.1,-4.72 15.1,-13.4 z"
         id="path28"
         style="fill:#4e4540" /><path
         class="cls-2"
         d="m 343.63,52.150001 v -7.77 a 10.71,10.71 0 0 1 -5.09,1.25 c -3,0 -4.76,-1.42 -4.76,-4.84 v -23.56 h 9.99 V 9.1300006 h -10 v -11.94 h -9.44 v 11.94 h -4.85 l 1.56,8.1000004 h 3.29 v 25.48 c 0,8.6 4.93,11.36 11.44,11.36 a 16.12,16.12 0 0 0 7.86,-1.92 z"
         id="path30"
         style="fill:#4e4540" /><path
         class="cls-2"
         d="m 379.77,13.140001 c -2.84,-2.92 -7.27,-4.5100004 -13,-4.5100004 a 31.47,31.47 0 0 0 -14.62,3.5100004 l 2.67,7.52 a 25.14,25.14 0 0 1 10.69,-2.68 c 6,0 9.52,3.09 9.52,9 v 1.84 a 30.13,30.13 0 0 0 -10.19,-1.75 c -9.35,0 -15.7,4.67 -15.7,14.19 v 0.42 c 0,8.61 6.18,13.53 13.53,13.53 a 14.07,14.07 0 0 0 12.28,-6.26 v 5.43 h 9.27 v -27.46 c 0,-5.51 -1.45,-9.86 -4.45,-12.78 z m -4.65,25.4 c 0,5 -4.18,8.69 -9.61,8.6 -4.09,-0.08 -7.18,-2.59 -7.18,-7 v -0.17 c 0,-4.68 3.17,-7.43 8.6,-7.43 a 21.47,21.47 0 0 1 8.19,1.58 z"
         id="path32"
         style="fill:#4e4540" /><path
         class="cls-2"
         d="m 424.34,47.630001 -5.09,-6.26 c -2.59,2.59 -5.18,4.51 -9,4.51 -6.44,0 -11,-5.76 -11,-14.36 v -0.42 c 0,-8.36 4.51,-14.28 10.7,-14.28 4,0 6.59,2 8.93,4.42 l 5.26,-6.93 A 18.66,18.66 0 0 0 409.95,8.3100006 c -11.61,0 -20.22,9.5200004 -20.22,22.7100004 v 0.84 c 0,13.2 8.36,22.47 19.88,22.47 a 18.51,18.51 0 0 0 14.73,-6.7 z"
         id="path34"
         style="fill:#4e4540" /><polygon
         class="cls-2"
         points="446.6,48.93 455.49,64.79 466.43,64.79 453.23,41.81 "
         id="polygon36"
         style="fill:#4e4540"
         transform="translate(0,-11.389999)" /><polygon
         class="cls-2"
         points="439.7,39.98 439.7,4.48 430.27,4.48 430.27,64.79 439.7,64.79 439.7,52.01 466.01,20.52 454.82,20.52 "
         id="polygon38"
         style="fill:#4e4540"
         transform="translate(0,-11.389999)" /></g></g></svg>