<?xml version="1.0" encoding="UTF-8" standalone="no"?>
<!-- Created with Inkscape (http://www.inkscape.org/) -->

<svg
   xmlns:dc="http://purl.org/dc/elements/1.1/"
   xmlns:cc="http://creativecommons.org/ns#"
   xmlns:rdf="http://www.w3.org/1999/02/22-rdf-syntax-ns#"
   xmlns:svg="http://www.w3.org/2000/svg"
   xmlns="http://www.w3.org/2000/svg"
   xmlns:xlink="http://www.w3.org/1999/xlink"
   xmlns:sodipodi="http://sodipodi.sourceforge.net/DTD/sodipodi-0.dtd"
   xmlns:inkscape="http://www.inkscape.org/namespaces/inkscape"
   id="svg2"
   version="1.1"
   inkscape:version="0.92.1 r15371"
   xml:space="preserve"
   width="586.65625"
   height="283.0925"
   viewBox="0 0 586.65628 283.09251"
   sodipodi:docname="openedx-logo.svg"><metadata
     id="metadata8"><rdf:RDF><cc:Work
         rdf:about=""><dc:format>image/svg+xml</dc:format><dc:type
           rdf:resource="http://purl.org/dc/dcmitype/StillImage" /><dc:title></dc:title></cc:Work></rdf:RDF></metadata><defs
     id="defs6"><clipPath
       id="SVGID_2_"><use
         xlink:href="#SVGID_1_"
         style="overflow:visible"
         id="use10"
         x="0"
         y="0"
         width="100%"
         height="100%" /></clipPath><clipPath
       id="SVGID_4_"><use
         xlink:href="#SVGID_3_"
         style="overflow:visible"
         id="use18"
         x="0"
         y="0"
         width="100%"
         height="100%" /></clipPath><clipPath
       id="SVGID_6_"><use
         xlink:href="#SVGID_5_"
         style="overflow:visible"
         id="use26"
         x="0"
         y="0"
         width="100%"
         height="100%" /></clipPath><clipPath
       id="clipPath2150"><use
         xlink:href="#SVGID_5_"
         style="overflow:visible"
         id="use2148"
         x="0"
         y="0"
         width="100%"
         height="100%" /></clipPath><clipPath
       id="clipPath2154"><use
         xlink:href="#SVGID_5_"
         style="overflow:visible"
         id="use2152"
         x="0"
         y="0"
         width="100%"
         height="100%" /></clipPath><clipPath
       id="clipPath2158"><use
         xlink:href="#SVGID_5_"
         style="overflow:visible"
         id="use2156"
         x="0"
         y="0"
         width="100%"
         height="100%" /></clipPath><clipPath
       id="clipPath2162"><use
         xlink:href="#SVGID_5_"
         style="overflow:visible"
         id="use2160"
         x="0"
         y="0"
         width="100%"
         height="100%" /></clipPath><clipPath
       id="clipPath2166"><use
         xlink:href="#SVGID_5_"
         style="overflow:visible"
         id="use2164"
         x="0"
         y="0"
         width="100%"
         height="100%" /></clipPath><clipPath
       id="clipPath2170"><use
         xlink:href="#SVGID_5_"
         style="overflow:visible"
         id="use2168"
         x="0"
         y="0"
         width="100%"
         height="100%" /></clipPath><rect
       id="SVGID_1_"
       x="427.5"
       y="242.39999"
       width="178.60001"
       height="114.6" /><rect
       id="SVGID_3_"
       x="428.60001"
       y="247.60001"
       width="176.3"
       height="81.5" /><rect
       id="SVGID_5_"
       x="428.60001"
       y="247.60001"
       width="176.3"
       height="81.5" /></defs><sodipodi:namedview
     pagecolor="#ffffff"
     bordercolor="#666666"
     borderopacity="1"
     objecttolerance="10"
     gridtolerance="10"
     guidetolerance="10"
     inkscape:pageopacity="0"
     inkscape:pageshadow="2"
     inkscape:window-width="1920"
     inkscape:window-height="1056"
     id="namedview4"
     showgrid="false"
     inkscape:zoom="0.62557265"
     inkscape:cx="22.145968"
     inkscape:cy="122.67127"
     inkscape:window-x="0"
     inkscape:window-y="0"
     inkscape:window-maximized="1"
     inkscape:current-layer="g10"
     units="px"
     scale-x="1"
     fit-margin-top="0"
     fit-margin-left="0"
     fit-margin-right="0"
     fit-margin-bottom="0" /><g
     id="g10"
     inkscape:groupmode="layer"
     inkscape:label="ink_ext_XXXXXX"
     transform="matrix(1.25,0,0,-1.25,0,283.0925)"><g
       id="g2344"
       transform="matrix(1.3669801,0,0,1.3669801,-100.979,296.79095)"><g
         transform="matrix(0.85333336,0,0,-0.85333336,-99.894313,111.78171)"
         id="Logo"><defs
           id="defs6-3"><rect
             height="114.6"
             width="178.60001"
             y="242.39999"
             x="427.5"
             id="rect2281" /></defs><clipPath
           id="clipPath2176"><use
             height="100%"
             width="100%"
             y="0"
             x="0"
             id="use2174"
             style="overflow:visible"
             xlink:href="#SVGID_1_" /></clipPath><g
           clip-path="url(#SVGID_2_)"
           id="g12"
           class="st0"><defs
             id="defs14"><rect
               height="81.5"
               width="176.3"
               y="247.60001"
               x="428.60001"
               id="rect2286" /></defs><clipPath
             id="clipPath2182"><use
               height="100%"
               width="100%"
               y="0"
               x="0"
               id="use2180"
               style="overflow:visible"
               xlink:href="#SVGID_3_" /></clipPath><g
             clip-path="url(#SVGID_4_)"
             id="g20"
             class="st1"><defs
               id="defs22"><rect
                 height="81.5"
                 width="176.3"
                 y="247.60001"
                 x="428.60001"
                 id="rect2291" /></defs><clipPath
               id="clipPath2188"><use
                 height="100%"
                 width="100%"
                 y="0"
                 x="0"
                 id="use2186"
                 style="overflow:visible"
                 xlink:href="#SVGID_5_" /></clipPath><polygon
               style="fill:#209fda"
               clip-path="url(#SVGID_6_)"
               id="polygon28"
               points="547.1,329.1 561.3,329.1 561.3,315.9 553.1,315.9 567,298.7 567,298.7 580.9,315.9 572.7,315.9 572.7,329.1 604.9,329.1 604.9,315.9 598.8,315.9 575.9,287.6 598,260.5 604.9,260.5 604.9,247.6 572.7,247.6 572.7,260.5 580,260.5 567,276.6 553.9,260.5 561.3,260.5 561.3,247.6 537.2,247.6 537.2,262 558,287.6 537.2,313.3 537.2,315.9 547.1,315.9 "
               class="st2" /><polygon
               style="fill:#026ba4"
               clip-path="url(#SVGID_6_)"
               id="polygon30"
               points="528.9,247.6 528.9,260.5 535.9,260.5 537.2,262 537.2,247.6 "
               class="st3" /><polygon
               style="fill:#026ba4"
               clip-path="url(#SVGID_6_)"
               id="polygon32"
               points="537.2,313.3 535.1,315.9 528.9,315.9 528.9,329.1 547.1,329.1 547.1,315.9 537.2,315.9 "
               class="st3" /><path
               style="fill:#78212e"
               inkscape:connector-curvature="0"
               clip-path="url(#SVGID_6_)"
               id="path34"
               d="m 477.2,309.8 h 11.4 c -1.4,3.4 -3.3,6.4 -5.6,9.1 -2.4,-2.7 -4.4,-5.8 -5.8,-9.1"
               class="st4" /><path
               style="fill:#78212e"
               inkscape:connector-curvature="0"
               clip-path="url(#SVGID_6_)"
               id="path36"
               d="m 483.1,276.2 c -3.3,3.6 -5.7,7.9 -7.1,12.7 0.5,1 1,2.1 1.3,3.3 h 11.3 c 0.3,-1.1 0.8,-2.2 1.3,-3.2 -1.3,-4.9 -3.7,-9.3 -6.8,-12.8 z m -5.8,15.9 c 0.5,1.7 0.8,3.5 0.8,5.4 0,1.8 -0.2,3.5 -0.7,5.1 h 11.1 c -0.5,-1.6 -0.7,-3.3 -0.7,-5.1 0,-1.9 0.3,-3.7 0.8,-5.4 z m 0,0 h -2 c -0.3,1.8 -0.5,3.6 -0.5,5.4 0,1.7 0.1,3.4 0.4,5.1 h 2.2 c 0.4,-1.6 0.7,-3.3 0.7,-5.1 -0.1,-1.9 -0.3,-3.7 -0.8,-5.4 z"
               class="st4" /><path
               style="fill:#8a8c8f"
               inkscape:connector-curvature="0"
               clip-path="url(#SVGID_6_)"
               id="path38"
               d="m 535.9,260.5 h -7 v -12.9 h -13.3 v 12.9 h 8.6 v 11.1 c -5,-3.6 -11.1,-5.7 -17.9,-5.7 -9.2,0 -17.5,3.9 -23.3,10.2 3.2,3.6 5.5,7.9 6.8,12.7 3.1,-5.8 9.2,-9.8 16.3,-9.8 10.2,0 18,8.3 18,18.4 v 0.1 c -0.1,10.1 -7.9,18.3 -18,18.3 -7.1,0 -13.2,-4 -16.3,-9.8 v 0 c -0.6,-1.1 -1.1,-2.3 -1.4,-3.5 h -13.3 c 0.2,1.2 0.5,2.4 0.8,3.6 0.4,1.2 0.8,2.4 1.3,3.6 h 11.4 c -1.4,3.4 -3.3,6.4 -5.6,9.1 5.8,6.3 14.1,10.2 23.3,10.2 6.7,0 12.9,-2.1 17.9,-5.7 1.7,-1.2 3.3,-2.6 4.7,-4.2 v -3.3 h 6.2 l 2.1,-2.6 V 262 Z m -11.7,62.9 v 5.7 h 4.7 v -9.9 c -1.4,1.6 -3,3 -4.7,4.2 z M 476,288.8 c -0.3,1.1 -0.6,2.2 -0.7,3.3 h 2 c -0.4,-1.1 -0.8,-2.2 -1.3,-3.3 z"
               class="st5" /><path
               style="fill:#b72768"
               inkscape:connector-curvature="0"
               clip-path="url(#SVGID_6_)"
               id="path40"
               d="m 490.6,292.1 c -0.2,-1.1 -0.4,-2.2 -0.7,-3.2 -0.5,1 -1,2.1 -1.3,3.2 -0.5,1.7 -0.8,3.5 -0.8,5.4 0,1.8 0.2,3.5 0.7,5.1 h 2.2 c 0.3,-1.7 0.4,-3.4 0.4,-5.1 -0.1,-1.8 -0.2,-3.6 -0.5,-5.4 z m -30.4,-26.2 c -15.6,0 -28.6,11.3 -31.1,26.2 h 13.3 c 2.3,-7.5 9.3,-13 17.6,-13 7,0 13,4 15.9,9.8 1.4,-4.8 3.8,-9.1 7.1,-12.7 -5.5,-6.3 -13.6,-10.3 -22.8,-10.3 z m 13.3,43.9 c -3.3,3.8 -8,6.2 -13.5,6.2 -8.4,0 -15.5,-5.6 -17.7,-13.3 h 32.9 c -0.3,-1.7 -0.4,-3.4 -0.4,-5.1 0,-1.8 0.2,-3.7 0.5,-5.4 H 429 c -0.3,1.8 -0.5,3.6 -0.5,5.4 0,1.7 0.1,3.4 0.4,5.1 v 0 c 2.4,15 15.5,26.5 31.2,26.5 9.2,0 17.3,-3.9 22.9,-10.2 -2.4,-2.6 -4.4,-5.7 -5.8,-9.1 h -3.7 z"
               class="st6" /></g></g></g><g
         transform="matrix(0.85333336,0,0,-0.85333336,-99.894313,111.78171)"
         id="g42"><path
           style="fill:#209fda"
           inkscape:connector-curvature="0"
           id="path44"
           d="m 411.8,319 h 0.2 v -51.3 h 6.1 v 60.2 h -7.7 l -35,-51.8 h -0.2 v 51.8 h -6.1 v -60.2 h 7.6 z"
           class="st7" /></g><g
         transform="matrix(0.85333336,0,0,-0.85333336,-99.894313,111.78171)"
         id="g46"><path
           style="fill:#209fda"
           inkscape:connector-curvature="0"
           id="path48"
           d="m 327.2,322.4 h 32.2 v 5.4 h -38.3 v -60.2 h 37.3 v 5.4 h -31.2 v 20.7 h 29.2 v 5.4 h -29.2 z"
           class="st7" /></g><g
         transform="matrix(0.85333336,0,0,-0.85333336,-99.894313,111.78171)"
         id="g50"><path
           style="fill:#209fda"
           inkscape:connector-curvature="0"
           id="path52"
           d="m 276.1,267.7 h 17 c 3.1,0 5.8,0.3 8.3,1 2.5,0.7 4.6,1.6 6.4,3 1.8,1.3 3.2,3 4.1,5 1,2 1.4,4.4 1.4,7.1 0,2.7 -0.5,5.1 -1.5,7.1 -1,2 -2.4,3.7 -4.2,5 -1.8,1.3 -3.9,2.3 -6.5,3 -2.5,0.7 -5.3,1 -8.4,1 H 282 v 28 h -6.1 v -60.2 z m 6.1,27 h 10.4 c 4.8,0 8.5,-0.9 11,-2.8 2.5,-1.9 3.7,-4.6 3.7,-8.2 0,-3.7 -1.3,-6.5 -3.9,-8.2 -2.6,-1.7 -6.2,-2.6 -10.8,-2.6 h -10.4 z"
           class="st7" /></g><g
         transform="matrix(0.85333336,0,0,-0.85333336,-99.894313,111.78171)"
         id="g54"><path
           style="fill:#209fda"
           inkscape:connector-curvature="0"
           id="path56"
           d="m 266.7,297.1 c 0,4.5 -0.8,8.7 -2.4,12.5 -1.6,3.8 -3.7,7.1 -6.5,9.9 -2.8,2.8 -6,4.9 -9.8,6.5 -3.8,1.6 -7.9,2.4 -12.3,2.4 -4.4,0 -8.5,-0.8 -12.3,-2.4 -3.8,-1.6 -7.1,-3.7 -9.8,-6.5 -2.8,-2.8 -4.9,-6.1 -6.5,-9.9 -1.6,-3.8 -2.4,-8 -2.4,-12.5 0,-4.5 0.8,-8.7 2.4,-12.5 1.6,-3.8 3.7,-7.1 6.5,-9.9 2.8,-2.8 6,-4.9 9.8,-6.5 3.8,-1.6 7.9,-2.4 12.3,-2.4 4.4,0 8.5,0.8 12.3,2.4 3.8,1.6 7.1,3.7 9.8,6.5 2.8,2.8 4.9,6.1 6.5,9.9 1.6,3.8 2.4,8 2.4,12.5 z m -6.4,0.1 c 0,-3.5 -0.6,-6.8 -1.7,-9.9 -1.1,-3.1 -2.7,-5.9 -4.9,-8.3 -2.1,-2.4 -4.7,-4.3 -7.8,-5.7 -3.1,-1.4 -6.5,-2.1 -10.3,-2.1 -3.8,0 -7.2,0.7 -10.3,2.1 -3.1,1.4 -5.6,3.3 -7.8,5.7 -2.1,2.4 -3.8,5.1 -4.9,8.3 -1.1,3.1 -1.7,6.4 -1.7,9.9 0,3.5 0.6,6.8 1.7,9.9 1.1,3.1 2.7,5.9 4.9,8.2 2.1,2.3 4.7,4.2 7.8,5.6 3.1,1.4 6.5,2.1 10.3,2.1 3.8,0 7.2,-0.7 10.3,-2.1 3.1,-1.4 5.6,-3.3 7.8,-5.6 2.1,-2.3 3.8,-5.1 4.9,-8.2 1.1,-3.1 1.7,-6.4 1.7,-9.9 z"
           class="st7" /></g></g></g></svg>